<?xml version="1.0" encoding="utf-8"?>
<!-- Generator: Adobe Illustrator 23.0.3, SVG Export Plug-In . SVG Version: 6.00 Build 0)  -->
<svg version="1.2" baseProfile="tiny" id="Layer_1" xmlns="http://www.w3.org/2000/svg" xmlns:xlink="http://www.w3.org/1999/xlink"
	 x="0px" y="0px" viewBox="0 0 149.8 30" xml:space="preserve">
<path fill="none" d="M60.2,12.2c-0.3-0.4-0.6-0.6-1-0.8c-0.4-0.2-0.9-0.3-1.4-0.3c-0.5,0-1,0.1-1.4,0.3c-0.4,0.2-0.8,0.5-1,0.8
	c-0.3,0.4-0.5,0.8-0.7,1.3c-0.1,0.5-0.2,1-0.2,1.6c0,0.6,0.1,1.1,0.2,1.7c0.2,0.5,0.4,0.9,0.7,1.3c0.3,0.4,0.6,0.6,1,0.8
	s0.9,0.3,1.4,0.3c0.5,0,1-0.1,1.4-0.3c0.4-0.2,0.8-0.5,1-0.8c0.3-0.4,0.5-0.8,0.6-1.3c0.2-0.5,0.2-1.1,0.2-1.7
	c0-0.6-0.1-1.1-0.2-1.7C60.7,13,60.5,12.5,60.2,12.2z"/>
<polygon fill="none" points="54.4,15.1 54.4,15.1 54.4,15.1 "/>
<path fill="none" d="M145.4,11.5c-0.5-0.3-1.1-0.4-2-0.4l0,0l-0.6,0l-0.5,0v3.4h0.8c1.1,0,1.8-0.1,2.3-0.4c0.5-0.3,0.7-0.7,0.7-1.3
	C146.1,12.2,145.9,11.8,145.4,11.5z"/>
<polygon fill="#2F1C6A" points="18.4,9 25.6,13.2 25.6,3.7 18.4,0 "/>
<polygon fill="#2F1C6A" points="45,13.7 40.3,13.7 40.3,8.9 37.5,8.9 37.5,21.4 40.3,21.4 40.3,16.1 45,16.1 45,21.4 47.8,21.4 
	47.8,8.9 45,8.9 "/>
<polygon fill="#2F1C6A" points="16.5,10.1 7.1,10.1 7.1,3.8 0,0 0,14 23.6,14 "/>
<polygon fill="#2F1C6A" points="0,26.1 7.1,29.8 7.1,21.1 0,16.9 "/>
<path fill="#2F1C6A" d="M8.9,19.8l9.4,0v6.3v0l7.3,3.9V16l-24-0.1C1.6,15.8,8.9,19.9,8.9,19.8z"/>
<path fill="#2F1C6A" d="M149.1,20l-0.8-1.4l-0.8-1.3l-0.8-1.1c0.8-0.3,1.3-0.7,1.7-1.3c0.4-0.5,0.6-1.3,0.6-2.1
	c0-1.4-0.5-2.4-1.5-3.1c-1-0.7-2.4-1-4.3-1l0,0l-1.8,0.1c-0.7,0-1.3,0.1-1.9,0.2v12.3h2.8v-4.6h1.4l0.7,1l0.7,1.1l0.7,1.2l0.7,1.2
	h3.1L149.1,20z M145.4,14.2c-0.5,0.3-1.2,0.4-2.3,0.4h-0.8v-3.4l0.5,0l0.6,0l0,0c0.9,0,1.6,0.1,2,0.4c0.5,0.3,0.7,0.7,0.7,1.3
	C146.1,13.5,145.9,13.9,145.4,14.2z"/>
<path fill="#2F1C6A" d="M120.6,19.1c-0.2,0-0.4,0.1-0.6,0.1l-0.8,0c-0.6,0-1.1-0.1-1.5-0.3c-0.4-0.2-0.8-0.5-1.1-0.8
	c-0.3-0.4-0.5-0.8-0.6-1.3c-0.1-0.5-0.2-1.1-0.2-1.7c0-1.3,0.3-2.3,0.9-3c0.6-0.7,1.5-1.1,2.8-1.1l0,0c0.6,0,1.1,0.1,1.6,0.2
	c0.5,0.2,0.9,0.3,1.3,0.5l0.8-2.2l-0.5-0.3c-0.2-0.1-0.5-0.2-0.8-0.3c-0.4-0.1-0.8-0.2-1.2-0.3c-0.5-0.1-1-0.1-1.6-0.1
	c-0.8,0-1.7,0.1-2.4,0.4c-0.7,0.3-1.4,0.7-2,1.3c-0.6,0.6-1,1.2-1.3,2c-0.3,0.8-0.5,1.7-0.5,2.8c0,1,0.1,1.9,0.4,2.8s0.7,1.5,1.3,2
	c0.5,0.6,1.2,1,2,1.3c0.8,0.3,1.6,0.4,2.5,0.4c1.1,0,2-0.1,2.8-0.2c0.7-0.1,1.3-0.3,1.6-0.4v-6.2h-2.8V19.1z"/>
<polygon fill="#2F1C6A" points="130.2,16 135.2,16 135.2,13.7 130.2,13.7 130.2,11.3 135.8,11.3 135.8,8.9 127.3,8.9 127.3,21.4 
	136.2,21.4 136.2,19 130.2,19 "/>
<path fill="#2F1C6A" d="M106.4,16.3l-1.4-2l-1.5-2l-1.5-1.8c-0.4-0.5-0.9-1-1.3-1.5h-2.3v12.5h2.8v-8.2c1.1,1.3,2.1,2.6,3,3.9
	l2.6,4.2l0,0h2.4V8.9h-2.8V16.3z"/>
<polygon fill="#2F1C6A" points="78,11.3 81.7,11.3 81.7,21.4 84.5,21.4 84.5,11.3 88.3,11.3 88.3,8.9 78,8.9 "/>
<path fill="#2F1C6A" d="M75,15.3c-0.3-0.3-0.7-0.6-1.2-0.8l-1.7-0.7l-0.9-0.3c-0.2-0.1-0.5-0.2-0.7-0.3c-0.2-0.1-0.4-0.3-0.5-0.4
	c-0.1-0.2-0.2-0.3-0.2-0.6c0-0.4,0.1-0.7,0.4-0.9s0.8-0.3,1.5-0.3c0.6,0,1.1,0.1,1.5,0.2c0.4,0.1,0.8,0.3,1.2,0.5l0.8-2.2
	c-0.4-0.2-0.9-0.4-1.5-0.6c-0.6-0.2-1.3-0.3-2.2-0.3c-0.7,0-1.3,0.1-1.9,0.3s-1,0.4-1.4,0.7c-0.4,0.3-0.7,0.7-0.9,1.2
	c-0.2,0.5-0.3,1-0.3,1.6s0.1,1.1,0.3,1.5c0.2,0.4,0.5,0.7,0.8,1c0.3,0.3,0.7,0.5,1.1,0.7l1.2,0.5c0.9,0.3,1.6,0.6,2,0.9
	c0.4,0.3,0.6,0.6,0.6,1c0,0.2,0,0.4-0.1,0.5s-0.2,0.3-0.3,0.4c-0.2,0.1-0.4,0.2-0.6,0.3c-0.3,0.1-0.6,0.1-1,0.1l0,0
	c-0.8,0-1.5-0.1-2-0.2c-0.5-0.2-1-0.3-1.4-0.5l-0.8,2.2l0.6,0.3c0.3,0.1,0.6,0.2,0.9,0.3c0.4,0.1,0.8,0.2,1.2,0.2
	c0.5,0.1,1,0.1,1.5,0.1c1.6,0,2.9-0.3,3.7-1c0.8-0.6,1.2-1.5,1.2-2.7c0-0.6-0.1-1.1-0.2-1.5C75.5,16,75.3,15.6,75,15.3z"/>
<rect x="91.4" y="8.9" fill="#2F1C6A" width="2.8" height="12.5"/>
<path fill="#2F1C6A" d="M62.1,10.3c-0.6-0.6-1.2-1-2-1.2c-0.8-0.3-1.6-0.4-2.4-0.4c-0.8,0-1.6,0.1-2.4,0.4c-0.7,0.3-1.4,0.7-2,1.2
	c-0.6,0.5-1,1.2-1.4,2s-0.5,1.7-0.5,2.8s0.2,2,0.5,2.8c0.3,0.8,0.8,1.5,1.3,2c0.6,0.5,1.2,1,2,1.2c0.8,0.3,1.6,0.4,2.4,0.4
	c0.9,0,1.7-0.1,2.5-0.4c0.7-0.3,1.4-0.7,2-1.2c0.6-0.5,1-1.2,1.3-2c0.3-0.8,0.5-1.7,0.5-2.8v0c0-1.1-0.2-2-0.5-2.8
	S62.7,10.8,62.1,10.3z M60.8,16.8c-0.1,0.5-0.4,0.9-0.6,1.3c-0.3,0.4-0.6,0.6-1,0.8c-0.4,0.2-0.9,0.3-1.4,0.3c-0.5,0-1-0.1-1.4-0.3
	s-0.8-0.5-1-0.8c-0.3-0.4-0.5-0.8-0.7-1.3c-0.2-0.5-0.2-1.1-0.2-1.7c0,0,0,0,0,0v0c0,0,0,0,0,0c0-0.6,0.1-1.1,0.2-1.6
	c0.1-0.5,0.4-0.9,0.7-1.3c0.3-0.4,0.6-0.6,1-0.8c0.4-0.2,0.9-0.3,1.4-0.3c0.5,0,1,0.1,1.4,0.3c0.4,0.2,0.8,0.5,1,0.8
	c0.3,0.4,0.5,0.8,0.6,1.3c0.2,0.5,0.2,1.1,0.2,1.7C61.1,15.7,61,16.2,60.8,16.8z"/>
</svg>
